<svg width="200" height="200" viewBox="0 0 200 200" fill="none" xmlns="http://www.w3.org/2000/svg">
<ellipse cx="100" cy="101" rx="100" ry="99" fill="white"/>
<path d="M79.7805 57.7582C76.4225 61.005 78.1015 66 82.4189 66C88.1755 66 90.0944 64.002 88.4154 59.5065C87.2161 55.7602 82.4189 54.7612 79.7805 57.7582Z" fill="#00CD9F"/>
<path d="M96.0199 60.9493C94.5804 64.3307 90.0221 67.4705 84.5041 68.9197C79.4659 70.3688 74.4278 73.0256 73.2282 74.9578C70.1094 79.7883 70.1094 91.8645 73.2282 91.8645C74.6677 91.8645 75.6274 87.7586 75.8673 82.6866C76.1072 68.6781 79.9458 80.5129 80.1857 95.9704L80.4256 108.771H72.2686C64.1116 108.771 63.8717 108.53 63.1519 97.1781C62.6721 88.0001 61.7125 85.8264 57.8739 85.8264C53.5555 85.8264 53.3156 88.0001 53.0756 115.534C52.8357 144.517 52.8357 145 58.3537 145C63.1519 145 63.6318 143.792 63.6318 131.716V118.432H102.018H140.404V131.716C140.404 143.309 140.883 145 145.202 145C149.76 145 150 143.309 150 116.259C150 89.6908 149.76 87.5171 145.202 86.3095C140.883 85.1018 140.404 86.3095 140.404 96.9365V108.771H132.007H123.61V93.0721C123.61 83.1696 124.569 77.373 126.249 77.373C127.928 77.373 128.648 80.2713 127.928 84.6188C127.208 88.4832 127.688 91.8645 128.888 91.8645C131.047 91.8645 131.527 79.5468 129.368 73.9917C128.648 71.818 125.289 70.1273 121.93 70.1273C118.572 70.1273 113.054 66.9875 108.735 62.8815C100.338 54.1866 99.1387 53.9451 96.0199 60.9493ZM104.417 65.0553C104.417 66.2629 106.576 68.1951 109.215 68.9197C114.493 70.6103 114.493 71.818 107.776 95.9704C105.856 102.975 102.977 108.771 101.298 108.771C99.3786 108.771 96.4997 101.526 93.8606 90.6569L89.5422 72.5425L95.3001 67.712C101.298 62.64 104.417 61.6739 104.417 65.0553ZM91.2216 102.25C92.6611 109.979 92.4212 110.945 89.0624 109.737C86.4234 108.771 85.2238 105.148 85.2238 98.3857C85.2238 86.551 88.8225 88.9662 91.2216 102.25ZM118.811 98.8687C118.811 104.665 117.612 108.771 115.453 109.496C110.175 111.67 109.695 109.496 112.574 99.1103C115.693 86.7925 118.811 86.7925 118.811 98.8687Z" fill="#00CD9F"/>
<path d="M114.575 58.0288C113.617 59.7623 113.856 61.9911 115.293 63.4769C118.645 66.944 126.068 63.9722 124.871 59.7623C123.434 55.8 116.73 54.5618 114.575 58.0288Z" fill="#00CD9F"/>
<path d="M39 116.424C39 140.229 39.5093 142.61 43.5841 141.896C47.4042 141.182 47.9136 137.611 48.6776 115.472C49.4416 91.1903 49.1869 90 44.0935 90C39.2547 90 39 91.4283 39 116.424Z" fill="#00CD9F"/>
<path d="M155 115.996C155 139.51 155.471 142.629 158.765 141.909C164.412 140.95 164.412 91.2824 158.765 90.0827C155.471 89.3629 155 92.962 155 115.996Z" fill="#00CD9F"/>
<path d="M28 116C28 132.15 28.5294 135 32.5 135C36.2059 135 37 132.15 37 116C37 99.6125 36.4706 97 32.5 97C28.5294 97 28 99.6125 28 116Z" fill="#00CD9F"/>
<path d="M167 116C167 131.2 167.7 135 170.5 135C173.3 135 174 131.2 174 116C174 100.8 173.3 97 170.5 97C167.7 97 167 100.8 167 116Z" fill="#00CD9F"/>
<path d="M20 116C20 122.595 21 125.421 23 124.95C24.5 124.479 26 120.475 26 116C26 111.525 24.5 107.521 23 107.05C21 106.579 20 109.405 20 116Z" fill="#00CD9F"/>
<path d="M176 116.5C176 121.725 177.25 126 178.5 126C180 126 181 121.725 181 116.5C181 111.275 180 107 178.5 107C177.25 107 176 111.275 176 116.5Z" fill="#00CD9F"/>
</svg>
