<?xml version="1.0" standalone="no"?>
<!DOCTYPE svg PUBLIC "-//W3C//DTD SVG 20010904//EN"
 "http://www.w3.org/TR/2001/REC-SVG-20010904/DTD/svg10.dtd">
<svg version="1.0" xmlns="http://www.w3.org/2000/svg"
 width="200.000000pt" height="200.000000pt" viewBox="0 0 200.000000 200.000000"
 preserveAspectRatio="xMidYMid meet">
<metadata>
Created by potrace 1.10, written by Peter Selinger 2001-2011
</metadata>
<g transform="translate(0.000000,200.000000) scale(0.100000,-0.100000)"
fill="#072d24" stroke="none">
<path d="M907 1223 c-14 -13 -7 -33 11 -33 24 0 32 8 25 26 -5 15 -25 19 -36
7z"/>
<path d="M975 1208 c-6 -14 -25 -27 -48 -33 -21 -6 -42 -17 -47 -25 -13 -20
-13 -70 0 -70 6 0 10 17 11 38 1 58 17 9 18 -55 l1 -53 -34 0 c-34 0 -35 1
-38 48 -2 38 -6 47 -22 47 -18 0 -19 -9 -20 -123 -1 -120 -1 -122 22 -122 20
0 22 5 22 55 l0 55 160 0 160 0 0 -55 c0 -48 2 -55 20 -55 19 0 20 7 20 119 0
110 -1 119 -20 124 -18 5 -20 0 -20 -44 l0 -49 -35 0 -35 0 0 65 c0 41 4 65
11 65 7 0 10 -12 7 -30 -3 -16 -1 -30 4 -30 9 0 11 51 2 74 -3 9 -17 16 -31
16 -14 0 -37 13 -55 30 -35 36 -40 37 -53 8z m35 -17 c0 -5 9 -13 20 -16 22
-7 22 -12 -6 -112 -8 -29 -20 -53 -27 -53 -8 0 -20 30 -31 75 l-18 75 24 20
c25 21 38 25 38 11z m-55 -154 c6 -32 5 -36 -9 -31 -11 4 -16 19 -16 47 0 49
15 39 25 -16z m115 14 c0 -24 -5 -41 -14 -44 -22 -9 -24 0 -12 43 13 51 26 51
26 1z"/>
<path d="M1055 1220 c-4 -7 -3 -16 3 -22 14 -14 45 -2 40 15 -6 16 -34 21 -43
7z"/>
<path d="M740 979 c0 -100 2 -110 18 -107 15 3 17 18 20 111 3 102 2 107 -18
107 -19 0 -20 -6 -20 -111z"/>
<path d="M1220 980 c0 -98 2 -111 16 -108 24 4 24 211 0 216 -14 3 -16 -12
-16 -108z"/>
<path d="M695 980 c0 -68 2 -80 17 -80 14 0 17 12 17 80 0 69 -2 80 -17 80
-15 0 -17 -11 -17 -80z"/>
<path d="M1270 980 c0 -64 3 -80 15 -80 12 0 15 16 15 80 0 64 -3 80 -15 80
-12 0 -15 -16 -15 -80z"/>
<path d="M660 980 c0 -28 4 -40 12 -38 6 2 12 19 12 38 0 19 -6 36 -12 38 -8
2 -12 -10 -12 -38z"/>
<path d="M1310 980 c0 -22 5 -40 10 -40 6 0 10 18 10 40 0 22 -4 40 -10 40 -5
0 -10 -18 -10 -40z"/>
<path d="M60 710 l0 -90 48 0 c80 0 92 7 92 51 0 21 -4 40 -9 43 -4 3 -6 18
-3 32 7 37 -19 54 -80 54 l-48 0 0 -90z m83 35 c1 -5 -6 -11 -15 -13 -11 -2
-18 3 -18 13 0 17 30 18 33 0z m10 -59 c7 -18 -1 -26 -25 -26 -11 0 -18 7 -18
20 0 23 35 28 43 6z"/>
<path d="M230 726 c0 -90 11 -106 75 -106 63 0 75 16 75 106 0 72 -1 74 -25
74 -24 0 -25 -2 -25 -64 0 -67 -7 -80 -35 -70 -14 6 -16 18 -13 68 3 60 3 61
-24 64 l-28 3 0 -75z"/>
<path d="M410 710 l0 -92 66 4 c77 5 84 12 84 88 0 76 -7 83 -84 88 l-66 4 0
-92z m100 0 c0 -36 -2 -40 -25 -40 -22 0 -25 4 -25 40 0 36 3 40 25 40 23 0
25 -4 25 -40z"/>
<path d="M590 710 l0 -92 66 4 c77 5 84 12 84 88 0 76 -7 83 -84 88 l-66 4 0
-92z m100 0 c0 -35 -3 -40 -23 -40 -20 0 -23 5 -22 40 0 35 3 40 23 40 19 0
22 -5 22 -40z"/>
<path d="M770 759 c0 -26 7 -50 20 -66 11 -14 20 -36 20 -49 0 -20 5 -24 30
-24 25 0 30 4 30 24 0 13 9 35 20 49 13 16 20 40 20 66 0 37 -2 41 -25 41 -21
0 -25 -5 -25 -29 0 -16 -3 -37 -6 -45 -10 -27 -34 1 -34 40 0 30 -3 34 -25 34
-23 0 -25 -4 -25 -41z"/>
<path d="M940 710 l0 -90 56 0 c74 0 94 12 94 56 0 19 -6 37 -13 40 -9 3 -12
16 -9 35 6 40 -8 49 -75 49 l-53 0 0 -90z m90 35 c0 -8 -9 -15 -20 -15 -11 0
-20 7 -20 15 0 8 9 15 20 15 11 0 20 -7 20 -15z m8 -68 c3 -12 -3 -17 -22 -17
-25 0 -35 18 -19 34 12 12 38 2 41 -17z"/>
<path d="M1120 720 c0 -89 8 -100 72 -100 56 0 67 15 69 100 2 74 2 75 -24 78
-26 3 -26 2 -29 -65 -2 -52 -6 -68 -18 -68 -12 0 -16 15 -18 68 -3 64 -4 67
-27 67 -24 0 -25 -2 -25 -80z"/>
<path d="M1297 793 c-15 -15 -7 -43 13 -43 17 0 20 -7 20 -40 0 -34 -3 -40
-21 -40 -15 0 -20 -5 -17 -22 3 -20 10 -23 61 -26 55 -3 57 -2 57 23 0 16 -6
25 -15 25 -11 0 -15 11 -15 40 0 29 4 40 15 40 9 0 15 9 15 25 0 24 -3 25 -53
25 -30 0 -57 -3 -60 -7z"/>
<path d="M1442 713 l3 -88 68 -3 67 -3 0 51 c0 47 -2 50 -25 50 -20 0 -25 -5
-25 -25 0 -17 -6 -25 -17 -25 -16 0 -18 8 -15 65 l4 65 -32 0 -31 0 3 -87z"/>
<path d="M1610 710 l0 -90 53 0 c78 0 97 17 97 90 0 73 -19 90 -97 90 l-53 0
0 -90z m100 0 c0 -36 -2 -40 -25 -40 -22 0 -25 4 -25 40 0 36 3 40 25 40 23 0
25 -4 25 -40z"/>
<path d="M1790 709 l0 -90 28 3 c23 3 27 7 24 31 -3 23 0 27 22 27 22 0 26 -4
26 -30 0 -25 4 -30 25 -30 23 0 25 4 25 45 0 26 -5 45 -11 45 -6 0 -8 11 -4
29 9 43 -15 61 -81 61 l-54 0 0 -91z m88 28 c2 -12 -3 -17 -17 -17 -15 0 -21
6 -21 21 0 25 33 22 38 -4z"/>
</g>
</svg>
