<svg width="200" height="200" viewBox="0 0 200 200" fill="none" xmlns="http://www.w3.org/2000/svg">
<circle cx="100" cy="100" r="100" fill="white"/>
<rect x="54" y="94" width="92" height="13" fill="#00CD9F"/>
<path d="M147 67C150.314 67 153 69.6863 153 73V128C153 131.314 150.314 134 147 134V134C143.686 134 141 131.314 141 128V73C141 69.6863 143.686 67 147 67V67Z" fill="#00CD9F"/>
<path d="M161.5 73C165.09 73 168 75.9101 168 79.5V119.5C168 123.09 165.09 126 161.5 126V126C157.91 126 155 123.09 155 119.5V79.5C155 75.9101 157.91 73 161.5 73V73Z" fill="#00CD9F"/>
<path d="M175.5 81C179.09 81 182 83.9101 182 87.5V113.5C182 117.09 179.09 120 175.5 120V120C171.91 120 169 117.09 169 113.5V87.5C169 83.9101 171.91 81 175.5 81V81Z" fill="#00CD9F"/>
<path d="M25.5 78C29.0899 78 32 80.9101 32 84.5V110.5C32 114.09 29.0899 117 25.5 117V117C21.9101 117 19 114.09 19 110.5V84.5C19 80.9101 21.9101 78 25.5 78V78Z" fill="#00CD9F"/>
<path d="M39.5 73C43.0899 73 46 75.9101 46 79.5V119.5C46 123.09 43.0899 126 39.5 126V126C35.9101 126 33 123.09 33 119.5V79.5C33 75.9101 35.9101 73 39.5 73V73Z" fill="#00CD9F"/>
<path d="M54 67C57.3137 67 60 69.6863 60 73L60 128C60 131.314 57.3137 134 54 134V134C50.6863 134 48 131.314 48 128V73C48 69.6863 50.6863 67 54 67V67Z" fill="#00CD9F"/>
<path d="M99.2653 42.8093C98.9367 43.1437 98.9367 47.7063 99.2653 48.0407C99.4007 48.1783 99.7293 48.2767 100 48.2767C100.87 48.2767 100.967 47.9817 100.967 45.425C100.967 42.8683 100.87 42.5733 100 42.5733C99.7293 42.5733 99.4007 42.6717 99.2653 42.8093Z" fill="#00CD9F"/>
<path d="M92.4987 45.6413C91.7253 46.192 91.938 46.8017 93.562 48.493C95.186 50.204 95.7467 50.4793 96.3267 49.9483C97.0227 49.2993 96.81 48.8273 94.9927 47.0377C94.0453 46.0937 93.1947 45.3267 93.1173 45.3267C93.0207 45.3267 92.7307 45.4643 92.4987 45.6413Z" fill="#00CD9F"/>
<path d="M104.872 47.1557C103.867 48.1783 103.287 48.9257 103.287 49.201C103.287 49.6533 103.944 50.2433 104.408 50.2433C104.563 50.2433 105.413 49.5157 106.303 48.6307C107.985 46.9787 108.236 46.4477 107.617 45.838C107.037 45.2283 106.515 45.4643 104.872 47.1557Z" fill="#00CD9F"/>
<path d="M84.6107 51.8954C82.948 52.682 81.6333 54.7274 81.6333 56.5564C81.6333 57.697 82.2907 59.172 83.18 60.0964C84.804 61.768 87.1047 62.0827 89.1733 60.942C90.836 60.0177 91.6867 58.523 91.6867 56.4777C91.6867 52.7607 87.936 50.322 84.6107 51.8954Z" fill="#00CD9F"/>
<path d="M111.503 51.738C108.236 52.918 107.211 57.402 109.628 60.0177C112.18 62.7907 116.897 61.7483 118.038 58.1297C118.444 56.8513 118.444 56.3007 118.077 55.042C117.284 52.2887 114.229 50.7547 111.503 51.738Z" fill="#00CD9F"/>
<path d="M96.3267 53.3507C95.9787 53.7047 95.7273 54.216 95.6693 54.688C95.07 58.8967 94.4707 60.5093 93.1947 61.4533C91.5707 62.6727 91.3773 62.712 86.7567 62.83C81.324 62.9677 81.672 62.7907 78.9267 66.7437C77.6507 68.5727 77.38 69.1037 76.3747 72.034C75.756 73.8237 75.2533 75.456 75.2533 75.6527C75.2533 76.2033 75.7753 77.1473 76.2007 77.3833C76.7807 77.698 77.8633 77.6193 78.3273 77.226C78.598 77.0097 79.1587 75.7313 79.8547 73.7253C80.802 71.09 81.73 69.1037 81.904 69.3593C81.9427 69.3987 81.8847 71.09 81.788 73.1353L81.5947 76.872L78.9073 86.1547C77.322 91.622 76.22 95.7717 76.22 96.2633C76.22 96.932 76.336 97.2073 76.8773 97.758C77.438 98.3283 77.67 98.4267 78.4047 98.4267C79.294 98.4267 80.0867 97.9743 80.4733 97.2467C80.57 97.05 81.6527 93.4117 82.89 89.1637C84.1273 84.9157 85.1713 81.3757 85.2293 81.3167C85.2873 81.2577 85.2873 82.3197 85.2293 83.6767C85.1713 85.0337 85.0747 88.495 84.9973 91.3663C84.8813 97.0303 84.92 97.404 85.9253 98.112C86.486 98.525 87.994 98.525 88.5547 98.112C89.502 97.4433 89.5213 97.286 89.7533 87.5903C89.908 81.356 90.1207 76.695 90.4493 72.86C90.7007 69.7723 90.9133 67.1567 90.9133 67.019C90.9133 66.901 91.4933 66.606 92.1893 66.37C93.7167 65.839 96.0173 64.3247 96.8293 63.2823C98.028 61.768 98.8013 59.6243 99.246 56.517C99.536 54.4717 99.3813 53.685 98.5887 53.1933C97.6993 52.6427 96.984 52.7017 96.3267 53.3507Z" fill="#00CD9F"/>
<path d="M101.121 53.6063C100.541 54.1963 100.522 54.216 100.638 55.7107C100.793 57.697 101.585 60.824 102.262 62.0827C103.287 64.01 105.394 65.662 107.985 66.547L108.99 66.901L109.493 72.388C109.879 76.5377 110.034 79.6647 110.131 85.1517C110.189 89.144 110.305 93.4903 110.382 94.7883C110.498 97.1287 110.498 97.1483 111.117 97.7777C111.658 98.3283 111.909 98.4267 112.625 98.4267C113.591 98.4267 114.577 97.7777 114.887 96.9517C114.983 96.7157 114.964 93.1757 114.867 89.085C114.751 85.014 114.693 81.592 114.732 81.474C114.771 81.3757 115.834 84.8567 117.091 89.2227C118.328 93.5887 119.469 97.286 119.585 97.4433C120.938 99.2527 123.78 98.348 123.78 96.1257C123.78 95.8307 122.562 91.3663 121.093 86.2333L118.405 76.8917L118.212 73.155C118.115 71.09 118.057 69.379 118.096 69.3593C118.27 69.1037 119.295 71.3457 120.145 73.804C120.687 75.397 121.305 76.8917 121.518 77.1277C122.62 78.3667 124.747 77.5013 124.747 75.81C124.747 75.397 122.813 69.6937 122.407 68.8677C122.059 68.1597 119.894 65.1507 119.256 64.4427C118.115 63.184 117.922 63.125 113.243 63.0267C109.029 62.9283 108.971 62.9283 108.023 62.3777C106.709 61.65 105.819 60.765 105.413 59.8013C105.065 58.995 104.543 56.6547 104.35 54.924C104.118 53.0557 102.378 52.328 101.121 53.6063Z" fill="#00CD9F"/>
</svg>
